<mxfile host="app.diagrams.net" modified="2022-11-15T01:47:32.881Z" agent="5.0 (Windows NT 10.0; Win64; x64) AppleWebKit/537.36 (KHTML, like Gecko) Chrome/107.0.0.0 Safari/537.36" etag="Zx20AScT0EwVmxLOzbo2" version="20.5.3" type="github">
  <diagram id="R2lEEEUBdFMjLlhIrx00" name="Page-1">
    <mxGraphModel dx="1422" dy="754" grid="1" gridSize="10" guides="1" tooltips="1" connect="0" arrows="0" fold="1" page="1" pageScale="1" pageWidth="850" pageHeight="1100" math="0" shadow="0" extFonts="Permanent Marker^https://fonts.googleapis.com/css?family=Permanent+Marker">
      <root>
        <mxCell id="0" />
        <mxCell id="1" parent="0" />
        <mxCell id="rO6TGoDAibbOI8yyp7PQ-1" value="图片" style="rounded=1;whiteSpace=wrap;html=1;" parent="1" vertex="1">
          <mxGeometry x="110" y="140" width="120" height="60" as="geometry" />
        </mxCell>
        <mxCell id="rO6TGoDAibbOI8yyp7PQ-2" value="商品" style="rounded=1;whiteSpace=wrap;html=1;" parent="1" vertex="1">
          <mxGeometry x="480" y="140" width="120" height="60" as="geometry" />
        </mxCell>
        <mxCell id="rO6TGoDAibbOI8yyp7PQ-3" value="商品图片表" style="rhombus;whiteSpace=wrap;html=1;" parent="1" vertex="1">
          <mxGeometry x="310" y="130" width="80" height="80" as="geometry" />
        </mxCell>
        <mxCell id="rO6TGoDAibbOI8yyp7PQ-4" value="" style="endArrow=none;html=1;rounded=0;entryX=1;entryY=0.5;entryDx=0;entryDy=0;exitX=0;exitY=0.5;exitDx=0;exitDy=0;" parent="1" source="rO6TGoDAibbOI8yyp7PQ-3" target="rO6TGoDAibbOI8yyp7PQ-1" edge="1">
          <mxGeometry width="50" height="50" relative="1" as="geometry">
            <mxPoint x="470" y="260" as="sourcePoint" />
            <mxPoint x="430" y="200" as="targetPoint" />
          </mxGeometry>
        </mxCell>
        <mxCell id="rO6TGoDAibbOI8yyp7PQ-6" value="" style="endArrow=none;html=1;rounded=0;entryX=0;entryY=0.5;entryDx=0;entryDy=0;" parent="1" source="rO6TGoDAibbOI8yyp7PQ-3" target="rO6TGoDAibbOI8yyp7PQ-2" edge="1">
          <mxGeometry width="50" height="50" relative="1" as="geometry">
            <mxPoint x="380" y="250" as="sourcePoint" />
            <mxPoint x="430" y="200" as="targetPoint" />
          </mxGeometry>
        </mxCell>
        <mxCell id="rO6TGoDAibbOI8yyp7PQ-7" value="N" style="text;html=1;strokeColor=none;fillColor=none;align=center;verticalAlign=middle;whiteSpace=wrap;rounded=0;" parent="1" vertex="1">
          <mxGeometry x="240" y="140" width="60" height="30" as="geometry" />
        </mxCell>
        <mxCell id="rO6TGoDAibbOI8yyp7PQ-9" value="N" style="text;html=1;strokeColor=none;fillColor=none;align=center;verticalAlign=middle;whiteSpace=wrap;rounded=0;" parent="1" vertex="1">
          <mxGeometry x="395" y="140" width="60" height="30" as="geometry" />
        </mxCell>
        <mxCell id="rO6TGoDAibbOI8yyp7PQ-10" value="商品sku" style="rounded=1;whiteSpace=wrap;html=1;arcSize=19;" parent="1" vertex="1">
          <mxGeometry x="610" y="20" width="120" height="60" as="geometry" />
        </mxCell>
        <mxCell id="rO6TGoDAibbOI8yyp7PQ-12" value="" style="endArrow=none;html=1;rounded=0;entryX=0.525;entryY=-0.033;entryDx=0;entryDy=0;entryPerimeter=0;" parent="1" source="rO6TGoDAibbOI8yyp7PQ-10" edge="1" target="rO6TGoDAibbOI8yyp7PQ-2">
          <mxGeometry width="50" height="50" relative="1" as="geometry">
            <mxPoint x="400" y="280" as="sourcePoint" />
            <mxPoint x="538" y="200" as="targetPoint" />
          </mxGeometry>
        </mxCell>
        <mxCell id="rO6TGoDAibbOI8yyp7PQ-13" value="1" style="text;html=1;strokeColor=none;fillColor=none;align=center;verticalAlign=middle;whiteSpace=wrap;rounded=0;" parent="1" vertex="1">
          <mxGeometry x="515" y="110" width="60" height="30" as="geometry" />
        </mxCell>
        <mxCell id="rO6TGoDAibbOI8yyp7PQ-14" value="N" style="text;html=1;strokeColor=none;fillColor=none;align=center;verticalAlign=middle;whiteSpace=wrap;rounded=0;" parent="1" vertex="1">
          <mxGeometry x="570" y="70" width="60" height="30" as="geometry" />
        </mxCell>
        <mxCell id="rO6TGoDAibbOI8yyp7PQ-15" value="属性类型" style="rounded=1;whiteSpace=wrap;html=1;" parent="1" vertex="1">
          <mxGeometry x="120" y="290" width="120" height="60" as="geometry" />
        </mxCell>
        <mxCell id="rO6TGoDAibbOI8yyp7PQ-16" value="属性值" style="rounded=1;whiteSpace=wrap;html=1;" parent="1" vertex="1">
          <mxGeometry x="122" y="450" width="120" height="60" as="geometry" />
        </mxCell>
        <mxCell id="rO6TGoDAibbOI8yyp7PQ-17" value="" style="endArrow=none;html=1;rounded=0;exitX=0.483;exitY=-0.017;exitDx=0;exitDy=0;exitPerimeter=0;entryX=0.508;entryY=1.033;entryDx=0;entryDy=0;entryPerimeter=0;" parent="1" source="rO6TGoDAibbOI8yyp7PQ-16" target="rO6TGoDAibbOI8yyp7PQ-15" edge="1">
          <mxGeometry width="50" height="50" relative="1" as="geometry">
            <mxPoint x="720" y="400" as="sourcePoint" />
            <mxPoint x="770" y="350" as="targetPoint" />
          </mxGeometry>
        </mxCell>
        <mxCell id="rO6TGoDAibbOI8yyp7PQ-18" value="1" style="text;html=1;strokeColor=none;fillColor=none;align=center;verticalAlign=middle;whiteSpace=wrap;rounded=0;" parent="1" vertex="1">
          <mxGeometry x="160" y="360" width="60" height="30" as="geometry" />
        </mxCell>
        <mxCell id="rO6TGoDAibbOI8yyp7PQ-19" value="N" style="text;html=1;strokeColor=none;fillColor=none;align=center;verticalAlign=middle;whiteSpace=wrap;rounded=0;" parent="1" vertex="1">
          <mxGeometry x="160" y="420" width="60" height="30" as="geometry" />
        </mxCell>
        <mxCell id="rO6TGoDAibbOI8yyp7PQ-21" value="商品属性" style="rhombus;whiteSpace=wrap;html=1;" parent="1" vertex="1">
          <mxGeometry x="315" y="260" width="80" height="80" as="geometry" />
        </mxCell>
        <mxCell id="rO6TGoDAibbOI8yyp7PQ-22" value="" style="endArrow=none;html=1;rounded=0;exitX=1.025;exitY=0.55;exitDx=0;exitDy=0;exitPerimeter=0;entryX=-0.012;entryY=0.55;entryDx=0;entryDy=0;entryPerimeter=0;" parent="1" source="rO6TGoDAibbOI8yyp7PQ-15" target="rO6TGoDAibbOI8yyp7PQ-21" edge="1">
          <mxGeometry width="50" height="50" relative="1" as="geometry">
            <mxPoint x="720" y="400" as="sourcePoint" />
            <mxPoint x="770" y="350" as="targetPoint" />
          </mxGeometry>
        </mxCell>
        <mxCell id="rO6TGoDAibbOI8yyp7PQ-23" value="" style="endArrow=none;html=1;rounded=0;entryX=0;entryY=1;entryDx=0;entryDy=0;entryPerimeter=0;exitX=0.938;exitY=0.5;exitDx=0;exitDy=0;exitPerimeter=0;" parent="1" source="rO6TGoDAibbOI8yyp7PQ-21" target="rO6TGoDAibbOI8yyp7PQ-2" edge="1">
          <mxGeometry width="50" height="50" relative="1" as="geometry">
            <mxPoint x="720" y="400" as="sourcePoint" />
            <mxPoint x="770" y="350" as="targetPoint" />
          </mxGeometry>
        </mxCell>
        <mxCell id="rO6TGoDAibbOI8yyp7PQ-24" value="N" style="text;html=1;strokeColor=none;fillColor=none;align=center;verticalAlign=middle;whiteSpace=wrap;rounded=0;" parent="1" vertex="1">
          <mxGeometry x="410" y="210" width="60" height="30" as="geometry" />
        </mxCell>
        <mxCell id="rO6TGoDAibbOI8yyp7PQ-25" value="N" style="text;html=1;strokeColor=none;fillColor=none;align=center;verticalAlign=middle;whiteSpace=wrap;rounded=0;" parent="1" vertex="1">
          <mxGeometry x="240" y="285" width="60" height="30" as="geometry" />
        </mxCell>
        <mxCell id="rO6TGoDAibbOI8yyp7PQ-26" value="类目" style="rounded=1;whiteSpace=wrap;html=1;" parent="1" vertex="1">
          <mxGeometry x="395" y="440" width="120" height="60" as="geometry" />
        </mxCell>
        <mxCell id="rO6TGoDAibbOI8yyp7PQ-27" value="类目属性" style="rhombus;whiteSpace=wrap;html=1;" parent="1" vertex="1">
          <mxGeometry x="280" y="360" width="80" height="80" as="geometry" />
        </mxCell>
        <mxCell id="rO6TGoDAibbOI8yyp7PQ-28" value="" style="endArrow=none;html=1;rounded=0;exitX=1.017;exitY=0.517;exitDx=0;exitDy=0;exitPerimeter=0;entryX=0.008;entryY=0.467;entryDx=0;entryDy=0;entryPerimeter=0;" parent="1" source="rO6TGoDAibbOI8yyp7PQ-27" target="rO6TGoDAibbOI8yyp7PQ-26" edge="1">
          <mxGeometry width="50" height="50" relative="1" as="geometry">
            <mxPoint x="400" y="380" as="sourcePoint" />
            <mxPoint x="450" y="330" as="targetPoint" />
          </mxGeometry>
        </mxCell>
        <mxCell id="rO6TGoDAibbOI8yyp7PQ-29" value="" style="endArrow=none;html=1;rounded=0;entryX=0.95;entryY=1.022;entryDx=0;entryDy=0;entryPerimeter=0;exitX=0.525;exitY=0.025;exitDx=0;exitDy=0;exitPerimeter=0;" parent="1" source="rO6TGoDAibbOI8yyp7PQ-27" target="rO6TGoDAibbOI8yyp7PQ-15" edge="1">
          <mxGeometry width="50" height="50" relative="1" as="geometry">
            <mxPoint x="400" y="380" as="sourcePoint" />
            <mxPoint x="450" y="330" as="targetPoint" />
          </mxGeometry>
        </mxCell>
        <mxCell id="rO6TGoDAibbOI8yyp7PQ-30" value="N" style="text;html=1;strokeColor=none;fillColor=none;align=center;verticalAlign=middle;whiteSpace=wrap;rounded=0;" parent="1" vertex="1">
          <mxGeometry x="250" y="330" width="60" height="30" as="geometry" />
        </mxCell>
        <mxCell id="rO6TGoDAibbOI8yyp7PQ-31" value="N" style="text;html=1;strokeColor=none;fillColor=none;align=center;verticalAlign=middle;whiteSpace=wrap;rounded=0;" parent="1" vertex="1">
          <mxGeometry x="360" y="410" width="60" height="30" as="geometry" />
        </mxCell>
        <mxCell id="rO6TGoDAibbOI8yyp7PQ-32" value="前台类目" style="rounded=1;whiteSpace=wrap;html=1;" parent="1" vertex="1">
          <mxGeometry x="659" y="440" width="120" height="60" as="geometry" />
        </mxCell>
        <mxCell id="rO6TGoDAibbOI8yyp7PQ-41" value="前台商品类目" style="rhombus;whiteSpace=wrap;html=1;" parent="1" vertex="1">
          <mxGeometry x="670" y="250" width="80" height="80" as="geometry" />
        </mxCell>
        <mxCell id="rO6TGoDAibbOI8yyp7PQ-42" value="" style="endArrow=none;html=1;rounded=0;entryX=0;entryY=0.5;entryDx=0;entryDy=0;entryPerimeter=0;exitX=1.042;exitY=0.111;exitDx=0;exitDy=0;exitPerimeter=0;" parent="1" source="rO6TGoDAibbOI8yyp7PQ-26" target="rO6TGoDAibbOI8yyp7PQ-41" edge="1">
          <mxGeometry width="50" height="50" relative="1" as="geometry">
            <mxPoint x="490" y="380" as="sourcePoint" />
            <mxPoint x="540" y="330" as="targetPoint" />
          </mxGeometry>
        </mxCell>
        <mxCell id="rO6TGoDAibbOI8yyp7PQ-43" value="" style="endArrow=none;html=1;rounded=0;entryX=0.475;entryY=1.008;entryDx=0;entryDy=0;entryPerimeter=0;exitX=0.428;exitY=0;exitDx=0;exitDy=0;exitPerimeter=0;" parent="1" source="rO6TGoDAibbOI8yyp7PQ-32" target="rO6TGoDAibbOI8yyp7PQ-41" edge="1">
          <mxGeometry width="50" height="50" relative="1" as="geometry">
            <mxPoint x="490" y="380" as="sourcePoint" />
            <mxPoint x="540" y="330" as="targetPoint" />
          </mxGeometry>
        </mxCell>
        <mxCell id="rO6TGoDAibbOI8yyp7PQ-44" value="" style="endArrow=none;html=1;rounded=0;entryX=1.006;entryY=0.5;entryDx=0;entryDy=0;entryPerimeter=0;exitX=0.5;exitY=-0.033;exitDx=0;exitDy=0;exitPerimeter=0;" parent="1" source="rO6TGoDAibbOI8yyp7PQ-41" target="rO6TGoDAibbOI8yyp7PQ-2" edge="1">
          <mxGeometry width="50" height="50" relative="1" as="geometry">
            <mxPoint x="490" y="380" as="sourcePoint" />
            <mxPoint x="540" y="330" as="targetPoint" />
          </mxGeometry>
        </mxCell>
        <mxCell id="rO6TGoDAibbOI8yyp7PQ-45" value="N" style="text;html=1;strokeColor=none;fillColor=none;align=center;verticalAlign=middle;whiteSpace=wrap;rounded=0;" parent="1" vertex="1">
          <mxGeometry x="610" y="170" width="60" height="30" as="geometry" />
        </mxCell>
        <mxCell id="rO6TGoDAibbOI8yyp7PQ-46" value="N" style="text;html=1;strokeColor=none;fillColor=none;align=center;verticalAlign=middle;whiteSpace=wrap;rounded=0;" parent="1" vertex="1">
          <mxGeometry x="538" y="410" width="60" height="30" as="geometry" />
        </mxCell>
        <mxCell id="rO6TGoDAibbOI8yyp7PQ-47" value="N" style="text;html=1;strokeColor=none;fillColor=none;align=center;verticalAlign=middle;whiteSpace=wrap;rounded=0;" parent="1" vertex="1">
          <mxGeometry x="710" y="380" width="60" height="30" as="geometry" />
        </mxCell>
        <mxCell id="8RqtQleB-1OjeuA2fae--1" value="" style="endArrow=none;html=1;rounded=0;entryX=0.475;entryY=1.033;entryDx=0;entryDy=0;entryPerimeter=0;exitX=0.542;exitY=0;exitDx=0;exitDy=0;exitPerimeter=0;" edge="1" parent="1" source="rO6TGoDAibbOI8yyp7PQ-26" target="rO6TGoDAibbOI8yyp7PQ-2">
          <mxGeometry width="50" height="50" relative="1" as="geometry">
            <mxPoint x="400" y="410" as="sourcePoint" />
            <mxPoint x="450" y="360" as="targetPoint" />
          </mxGeometry>
        </mxCell>
        <mxCell id="8RqtQleB-1OjeuA2fae--2" value="N" style="text;html=1;align=center;verticalAlign=middle;resizable=0;points=[];autosize=1;strokeColor=none;fillColor=none;" vertex="1" parent="1">
          <mxGeometry x="530" y="220" width="30" height="30" as="geometry" />
        </mxCell>
        <mxCell id="8RqtQleB-1OjeuA2fae--3" value="1" style="text;html=1;align=center;verticalAlign=middle;resizable=0;points=[];autosize=1;strokeColor=none;fillColor=none;" vertex="1" parent="1">
          <mxGeometry x="445" y="385" width="30" height="30" as="geometry" />
        </mxCell>
      </root>
    </mxGraphModel>
  </diagram>
</mxfile>
